<svg width="369.72" height="245.573" viewBox="0 0 277.29 184.18" class="displayed_equation" xmlns="http://www.w3.org/2000/svg">
  <path d="M 195.792969 145.457031 L 195.792969 64.402344 L 247.804688 12.394531 L 247.804688 93.449219" fill="#cdcdcd" />
  <path d="M606.992188 387.229688L1957.929688 387.229688 1957.929688 1197.776563 606.992188 1197.776563M1957.929688 387.229688L2478.046875 907.307813 2478.046875 1717.854688 1957.929688 1197.776563" transform="matrix(.1 0 0 -.1 0 184.18)" fill="none" stroke-width="7.97" stroke-linecap="round" stroke-linejoin="round" stroke="#000" stroke-miterlimit="10" />
  <path d="M 606.992188 387.229688 L 1957.929688 387.229688 L 2478.046875 907.307813 L 2478.046875 1717.854688 L 1127.109375 1717.854688 L 606.992188 1197.776563 Z M 606.992188 387.229688" transform="matrix(.1 0 0 -.1 0 184.18)" fill="none" stroke-width="7.97" stroke-linecap="round" stroke-linejoin="round" stroke="#000" stroke-miterlimit="10" />
  <path d="M606.992188 387.229688L1127.109375 907.307813 1127.109375 1717.854688M1127.109375 907.307813L2478.046875 907.307813" transform="matrix(.1 0 0 -.1 0 184.18)" fill="none" stroke-width="7.97" stroke-linecap="round" stroke-linejoin="round" stroke="#000" stroke-dasharray="7.9701,19.9255" stroke-miterlimit="10" />
  <path d="M 644.101563 302.190625 L 1920.859375 302.190625" transform="matrix(.1 0 0 -.1 0 184.18)" fill="none" stroke-width="3.985" stroke-linecap="round" stroke-linejoin="round" stroke="#000" stroke-miterlimit="10" />
  <path d="M 61.269531 153.960938 L 65.792969 155.667969 L 64.308594 153.960938 L 65.792969 152.257813" />
  <path d="M 612.695313 302.190625 L 657.929688 285.120313 L 643.085938 302.190625 L 657.929688 319.221875 Z M 612.695313 302.190625" transform="matrix(.1 0 0 -.1 0 184.18)" fill="none" stroke-width="3.985" stroke-linecap="round" stroke="#000" stroke-miterlimit="10" />
  <path d="M 195.226563 153.960938 L 190.699219 152.257813 L 192.183594 153.960938 L 190.699219 155.667969" />
  <path d="M 1952.265625 302.190625 L 1906.992188 319.221875 L 1921.835938 302.190625 L 1906.992188 285.120313 Z M 1952.265625 302.190625" transform="matrix(.1 0 0 -.1 0 184.18)" fill="none" stroke-width="3.985" stroke-linecap="round" stroke="#000" stroke-miterlimit="10" />
  <path d="M117.738281 163.605469L117.378906 163.605469C116.945313 164.898438 116.765625 165.3125 115.273438 165.3125L114.757813 165.3125C114.101563 165.3125 113.910156 165.210938 113.910156 164.71875L113.910156 159.878906C113.910156 159.007813 114.101563 158.785156 115.003906 158.785156L115.003906 158.449219 111.867188 158.449219 111.867188 158.785156C112.761719 158.785156 112.882813 159.007813 112.882813 159.867188L112.882813 164.40625C112.882813 165.277344 112.761719 165.445313 111.867188 165.445313L111.867188 165.78125 117.402344 165.78125 117.738281 163.605469M122.628906 164.183594C122.273438 164.652344 121.925781 165.054688 121.023438 165.054688 120.132813 165.054688 119.28125 164.351563 119.28125 162.8125L122.808594 162.8125C122.753906 161.25 121.949219 160.367188 120.734375 160.367188 119.429688 160.367188 118.378906 161.261719 118.378906 163.125 118.378906 164.921875 119.417969 165.890625 120.757813 165.890625 121.90625 165.890625 122.441406 165.1875 122.84375 164.339844zM119.273438 162.398438C119.359375 161.363281 119.808594 160.816406 120.566406 160.816406 121.359375 160.816406 121.726563 161.574219 121.757813 162.398438L119.273438 162.398438M128.566406 162.355469C128.566406 161.070313 128.085938 160.367188 127.070313 160.367188 126.367188 160.367188 125.878906 160.769531 125.273438 161.304688L125.230469 161.304688 125.242188 160.402344 124.984375 160.402344 123.570313 160.726563 123.570313 161.050781C123.570313 161.050781 123.679688 161.027344 123.867188 161.027344 124.171875 161.027344 124.339844 161.117188 124.339844 161.519531L124.339844 164.652344C124.339844 165.277344 124.304688 165.46875 123.554688 165.46875L123.554688 165.78125 126.113281 165.78125 126.113281 165.46875C125.308594 165.46875 125.265625 165.277344 125.265625 164.652344L125.265625 161.785156C125.597656 161.484375 126.011719 161.082031 126.613281 161.082031 127.117188 161.082031 127.640625 161.296875 127.640625 162.632813L127.640625 164.652344C127.640625 165.277344 127.605469 165.46875 126.8125 165.46875L126.8125 165.78125 129.390625 165.78125 129.390625 165.46875C128.644531 165.46875 128.566406 165.277344 128.566406 164.652344L128.566406 162.355469M131.027344 163.726563C130.503906 164.128906 130.113281 164.597656 130.113281 165 130.113281 165.3125 130.359375 165.613281 130.738281 165.800781L130.738281 165.847656C130.136719 166.425781 129.835938 166.804688 129.835938 167.175781 129.835938 167.789063 130.269531 168.402344 131.730469 168.402344 133.136719 168.402344 134.789063 167.886719 134.789063 166.394531 134.789063 165.109375 133.71875 165.066406 132.3125 165.066406 131.285156 165.066406 130.996094 164.953125 130.996094 164.617188 130.996094 164.429688 131.171875 164.027344 131.285156 163.871094 131.574219 163.972656 131.886719 164.039063 132.242188 164.039063 133.414063 164.039063 134.21875 163.382813 134.21875 162.34375 134.21875 161.785156 133.972656 161.417969 133.816406 161.195313L133.816406 161.140625 134.867188 161.171875 134.867188 160.570313 133.425781 160.648438C133.425781 160.648438 132.925781 160.367188 132.1875 160.367188 131.007813 160.367188 130.167969 161.070313 130.167969 162.1875 130.167969 162.914063 130.492188 163.390625 131.027344 163.703125zM132.109375 160.769531C132.824219 160.769531 133.226563 161.375 133.226563 162.277344 133.226563 163.335938 132.8125 163.648438 132.253906 163.648438 131.53125 163.648438 131.148438 163.101563 131.148438 162.140625 131.148438 161.207031 131.53125 160.769531 132.109375 160.769531zM131.015625 165.890625C131.171875 165.890625 131.382813 165.902344 132.277344 165.914063 133.023438 165.925781 134.21875 165.902344 134.21875 166.707031 134.21875 167.1875 133.695313 167.765625 132.378906 167.765625 131.242188 167.765625 130.703125 167.441406 130.703125 166.796875 130.703125 166.5625 130.78125 166.304688 131.015625 165.890625M138.367188 164.773438C138.089844 165.085938 137.945313 165.234375 137.589844 165.234375 137.152344 165.234375 137.054688 164.964844 137.054688 164.171875L137.054688 160.972656 138.3125 160.972656 138.3125 160.503906 137.054688 160.503906 137.0625 158.976563 136.773438 158.976563C136.371094 159.921875 136.039063 160.390625 135.511719 160.714844L135.511719 160.972656 136.128906 160.972656 136.128906 164.484375C136.128906 165.488281 136.449219 165.890625 137.195313 165.890625 137.910156 165.890625 138.144531 165.554688 138.582031 164.953125L138.367188 164.773438M140.640625 161.773438C141.1875 161.273438 141.589844 161.082031 142.023438 161.082031 142.929688 161.082031 143.050781 161.851563 143.050781 162.765625L143.050781 164.695313C143.050781 165.234375 143.007813 165.457031 142.238281 165.457031L142.238281 165.78125 144.804688 165.78125 144.804688 165.457031C144.101563 165.457031 143.976563 165.242188 143.976563 164.652344L143.976563 162.433594C143.976563 161.519531 143.765625 160.367188 142.484375 160.367188 141.890625 160.367188 141.378906 160.625 140.675781 161.285156L140.640625 161.285156 140.640625 157.902344 140.339844 157.902344 138.84375 158.292969 138.84375 158.605469C138.84375 158.605469 138.992188 158.585938 139.167969 158.585938 139.46875 158.585938 139.714844 158.640625 139.714844 159.03125L139.714844 164.742188C139.714844 165.367188 139.515625 165.457031 138.933594 165.457031L138.933594 165.78125 141.46875 165.78125 141.46875 165.457031C140.695313 165.457031 140.640625 165.277344 140.640625 164.695313L140.640625 161.773438" />
  <path d="M 521.953125 424.3 L 521.953125 1160.667188" transform="matrix(.1 0 0 -.1 0 184.18)" fill="none" stroke-width="3.985" stroke-linecap="round" stroke-linejoin="round" stroke="#000" stroke-miterlimit="10" />
  <path d="M 52.195313 144.890625 L 53.902344 140.363281 L 52.195313 141.847656 L 50.492188 140.363281" />
  <path d="M 521.953125 392.89375 L 539.023438 438.167188 L 521.953125 423.323438 L 504.921875 438.167188 Z M 521.953125 392.89375" transform="matrix(.1 0 0 -.1 0 184.18)" fill="none" stroke-width="3.985" stroke-linecap="round" stroke="#000" stroke-miterlimit="10" />
  <path d="M 52.195313 64.972656 L 50.492188 69.496094 L 52.195313 68.011719 L 53.902344 69.496094" />
  <path d="M 521.953125 1192.073438 L 504.921875 1146.839063 L 521.953125 1161.682813 L 539.023438 1146.839063 Z M 521.953125 1192.073438" transform="matrix(.1 0 0 -.1 0 184.18)" fill="none" stroke-width="3.985" stroke-linecap="round" stroke="#000" stroke-miterlimit="10" />
  <path d="M18.210938 101.722656C18.210938 100.851563 18.242188 100.585938 19.304688 100.585938L19.304688 100.25 16.101563 100.25 16.101563 100.585938C17.128906 100.585938 17.183594 100.851563 17.183594 101.722656L17.183594 106.117188C17.183594 107.109375 17.105469 107.246094 16.101563 107.246094L16.101563 107.578125 19.304688 107.578125 19.304688 107.246094C18.300781 107.246094 18.210938 107.101563 18.210938 106.117188L18.210938 104.03125 21.867188 104.03125 21.867188 106.117188C21.867188 107.089844 21.78125 107.246094 20.789063 107.246094L20.789063 107.578125 23.976563 107.578125 23.976563 107.246094C22.960938 107.246094 22.882813 107.089844 22.882813 106.117188L22.882813 101.722656C22.882813 100.839844 22.917969 100.585938 23.976563 100.585938L23.976563 100.25 20.789063 100.25 20.789063 100.585938C21.8125 100.585938 21.867188 100.851563 21.867188 101.722656L21.867188 103.597656 18.210938 103.597656 18.210938 101.722656M29.03125 105.984375C28.671875 106.453125 28.328125 106.855469 27.421875 106.855469 26.53125 106.855469 25.683594 106.152344 25.683594 104.613281L29.207031 104.613281C29.152344 103.050781 28.351563 102.167969 27.132813 102.167969 25.828125 102.167969 24.78125 103.0625 24.78125 104.925781 24.78125 106.71875 25.816406 107.691406 27.15625 107.691406 28.304688 107.691406 28.839844 106.988281 29.242188 106.140625zM25.671875 104.199219C25.761719 103.164063 26.207031 102.617188 26.964844 102.617188 27.757813 102.617188 28.125 103.375 28.160156 104.199219L25.671875 104.199219M31.21875 99.847656C30.828125 99.847656 30.582031 100.140625 30.582031 100.472656 30.582031 100.820313 30.839844 101.109375 31.21875 101.109375 31.609375 101.109375 31.851563 100.820313 31.851563 100.472656 31.851563 100.140625 31.609375 99.847656 31.21875 99.847656zM32.46875 107.265625C31.71875 107.265625 31.664063 107.101563 31.664063 106.453125L31.664063 102.203125 31.375 102.203125 29.96875 102.515625 29.96875 102.835938C29.96875 102.835938 30.089844 102.816406 30.246094 102.816406 30.570313 102.816406 30.738281 102.859375 30.738281 103.339844L30.738281 106.453125C30.738281 107.089844 30.703125 107.265625 29.957031 107.265625L29.957031 107.578125 32.46875 107.578125 32.46875 107.265625M34.226563 105.527344C33.703125 105.929688 33.3125 106.398438 33.3125 106.796875 33.3125 107.109375 33.558594 107.414063 33.9375 107.601563L33.9375 107.648438C33.335938 108.226563 33.035156 108.605469 33.035156 108.976563 33.035156 109.585938 33.46875 110.203125 34.929688 110.203125 36.335938 110.203125 37.988281 109.6875 37.988281 108.195313 37.988281 106.910156 36.917969 106.867188 35.511719 106.867188 34.484375 106.867188 34.195313 106.753906 34.195313 106.417969 34.195313 106.230469 34.375 105.828125 34.484375 105.671875 34.773438 105.773438 35.085938 105.839844 35.445313 105.839844 36.617188 105.839844 37.417969 105.179688 37.417969 104.144531 37.417969 103.585938 37.171875 103.21875 37.015625 102.992188L37.015625 102.9375 38.066406 102.972656 38.066406 102.371094 36.625 102.449219C36.625 102.449219 36.125 102.167969 35.386719 102.167969 34.207031 102.167969 33.367188 102.871094 33.367188 103.988281 33.367188 104.710938 33.691406 105.191406 34.226563 105.503906zM35.3125 102.570313C36.023438 102.570313 36.425781 103.171875 36.425781 104.078125 36.425781 105.136719 36.011719 105.449219 35.453125 105.449219 34.730469 105.449219 34.351563 104.902344 34.351563 103.941406 34.351563 103.007813 34.730469 102.570313 35.3125 102.570313zM34.21875 107.691406C34.375 107.691406 34.585938 107.703125 35.476563 107.714844 36.226563 107.726563 37.417969 107.703125 37.417969 108.507813 37.417969 108.984375 36.894531 109.566406 35.578125 109.566406 34.441406 109.566406 33.90625 109.242188 33.90625 108.59375 33.90625 108.359375 33.984375 108.105469 34.21875 107.691406M41.570313 106.574219C41.289063 106.886719 41.144531 107.03125 40.789063 107.03125 40.351563 107.03125 40.253906 106.765625 40.253906 105.972656L40.253906 102.773438 41.511719 102.773438 41.511719 102.304688 40.253906 102.304688 40.265625 100.773438 39.972656 100.773438C39.570313 101.722656 39.238281 102.191406 38.710938 102.515625L38.710938 102.773438 39.328125 102.773438 39.328125 106.285156C39.328125 107.289063 39.648438 107.691406 40.398438 107.691406 41.109375 107.691406 41.34375 107.355469 41.78125 106.753906L41.570313 106.574219M43.84375 103.574219C44.386719 103.070313 44.789063 102.882813 45.226563 102.882813 46.128906 102.882813 46.25 103.652344 46.25 104.566406L46.25 106.496094C46.25 107.03125 46.207031 107.257813 45.4375 107.257813L45.4375 107.578125 48.003906 107.578125 48.003906 107.257813C47.300781 107.257813 47.179688 107.042969 47.179688 106.453125L47.179688 104.234375C47.179688 103.320313 46.964844 102.167969 45.683594 102.167969 45.089844 102.167969 44.578125 102.425781 43.875 103.085938L43.84375 103.085938 43.84375 99.703125 43.539063 99.703125 42.046875 100.09375 42.046875 100.40625C42.046875 100.40625 42.191406 100.382813 42.367188 100.382813 42.671875 100.382813 42.914063 100.4375 42.914063 100.828125L42.914063 106.542969C42.914063 107.167969 42.714844 107.257813 42.132813 107.257813L42.132813 107.578125 44.667969 107.578125 44.667969 107.257813C43.898438 107.257813 43.84375 107.078125 43.84375 106.496094L43.84375 103.574219" />
  <path d="M 2044.296875 353.323438 L 2511.953125 820.940625" transform="matrix(.1 0 0 -.1 0 184.18)" fill="none" stroke-width="3.985" stroke-linecap="round" stroke-linejoin="round" stroke="#000" stroke-miterlimit="10" />
  <path d="M 202.207031 151.070313 L 206.613281 149.074219 L 204.359375 148.917969 L 204.203125 146.664063" />
  <path d="M 2022.070313 331.096875 L 2066.132813 351.057813 L 2043.59375 352.620313 L 2042.03125 375.159375 Z M 2022.070313 331.096875" transform="matrix(.1 0 0 -.1 0 184.18)" fill="none" stroke-width="3.985" stroke-linecap="round" stroke="#000" stroke-miterlimit="10" />
  <path d="M 253.414063 99.863281 L 249.007813 101.859375 L 251.265625 102.015625 L 251.417969 104.269531" />
  <path d="M 2534.140625 843.167188 L 2490.078125 823.20625 L 2512.65625 821.64375 L 2514.179688 799.104688 Z M 2534.140625 843.167188" transform="matrix(.1 0 0 -.1 0 184.18)" fill="none" stroke-width="3.985" stroke-linecap="round" stroke="#000" stroke-miterlimit="10" />
  <path d="M242.21875 129.949219L239.921875 129.949219 239.921875 130.285156C240.4375 130.285156 240.671875 130.417969 240.671875 130.753906 240.671875 131.03125 240.578125 131.367188 240.46875 131.722656L239.195313 135.429688 239.140625 135.429688 238.773438 134.324219 237.613281 131.3125C237.535156 131.109375 237.421875 130.84375 237.421875 130.664063 237.421875 130.417969 237.714844 130.285156 238.269531 130.285156L238.269531 129.949219 235.359375 129.949219 235.359375 130.285156C235.996094 130.285156 236.171875 130.375 236.53125 131.34375L236.84375 132.203125 235.582031 135.460938 235.527344 135.460938 235.179688 134.523438 233.886719 131.265625C233.773438 130.976563 233.730469 130.785156 233.730469 130.652344 233.730469 130.417969 233.898438 130.285156 234.46875 130.285156L234.46875 129.949219 231.589844 129.949219 231.589844 130.285156C232.167969 130.304688 232.46875 130.5625 232.816406 131.5L235.136719 137.347656 235.414063 137.347656 237.101563 132.917969 237.144531 132.917969 238.816406 137.347656 239.117188 137.347656 241.273438 131.054688C241.472656 130.484375 241.695313 130.296875 242.21875 130.285156L242.21875 129.949219M243.917969 129.546875C243.527344 129.546875 243.28125 129.839844 243.28125 130.171875 243.28125 130.519531 243.539063 130.808594 243.917969 130.808594 244.308594 130.808594 244.554688 130.519531 244.554688 130.171875 244.554688 129.839844 244.308594 129.546875 243.917969 129.546875zM245.167969 136.96875C244.421875 136.96875 244.363281 136.800781 244.363281 136.152344L244.363281 131.902344 244.074219 131.902344 242.667969 132.214844 242.667969 132.539063C242.667969 132.539063 242.789063 132.515625 242.945313 132.515625 243.269531 132.515625 243.4375 132.5625 243.4375 133.039063L243.4375 136.152344C243.4375 136.789063 243.40625 136.96875 242.65625 136.96875L242.65625 137.28125 245.167969 137.28125 245.167969 136.96875M251.234375 137.078125L251.234375 136.777344 251 136.777344C250.589844 136.777344 250.441406 136.664063 250.441406 136.085938L250.441406 129.402344 250.140625 129.402344 248.734375 129.792969 248.734375 130.105469C248.734375 130.105469 248.925781 130.085938 249.023438 130.085938 249.460938 130.085938 249.515625 130.183594 249.515625 130.675781L249.515625 132.136719C249.171875 131.945313 248.800781 131.867188 248.433594 131.867188 247.027344 131.867188 245.867188 132.996094 245.867188 134.835938 245.867188 136.265625 246.515625 137.367188 247.777344 137.367188 248.511719 137.367188 249.082031 136.945313 249.503906 136.566406L249.550781 136.566406 249.550781 137.335938 249.804688 137.335938zM249.515625 136.152344C249.128906 136.421875 248.824219 136.566406 248.300781 136.566406 247.351563 136.566406 246.839844 135.941406 246.839844 134.402344 246.839844 132.996094 247.476563 132.316406 248.414063 132.316406 249.101563 132.316406 249.425781 132.75 249.515625 133.207031L249.515625 136.152344M254.867188 136.273438C254.589844 136.585938 254.445313 136.734375 254.089844 136.734375 253.652344 136.734375 253.554688 136.464844 253.554688 135.671875L253.554688 132.472656 254.8125 132.472656 254.8125 132.003906 253.554688 132.003906 253.5625 130.476563 253.273438 130.476563C252.871094 131.421875 252.539063 131.890625 252.011719 132.214844L252.011719 132.472656 252.628906 132.472656 252.628906 135.984375C252.628906 136.988281 252.949219 137.390625 253.695313 137.390625 254.410156 137.390625 254.644531 137.054688 255.082031 136.453125L254.867188 136.273438M257.140625 133.273438C257.6875 132.773438 258.089844 132.582031 258.523438 132.582031 259.429688 132.582031 259.550781 133.351563 259.550781 134.265625L259.550781 136.195313C259.550781 136.734375 259.507813 136.957031 258.738281 136.957031L258.738281 137.28125 261.304688 137.28125 261.304688 136.957031C260.601563 136.957031 260.476563 136.742188 260.476563 136.152344L260.476563 133.933594C260.476563 133.019531 260.265625 131.867188 258.984375 131.867188 258.390625 131.867188 257.878906 132.125 257.175781 132.785156L257.140625 132.785156 257.140625 129.402344 256.839844 129.402344 255.34375 129.792969 255.34375 130.105469C255.34375 130.105469 255.492188 130.085938 255.667969 130.085938 255.96875 130.085938 256.214844 130.140625 256.214844 130.53125L256.214844 136.242188C256.214844 136.867188 256.015625 136.957031 255.433594 136.957031L255.433594 137.28125 257.96875 137.28125 257.96875 136.957031C257.195313 136.957031 257.140625 136.777344 257.140625 136.195313L257.140625 133.273438" />
</svg>